<?xml version="1.0" encoding="UTF-8" standalone="no"?><!DOCTYPE svg PUBLIC "-//W3C//DTD SVG 1.1//EN" "http://www.w3.org/Graphics/SVG/1.1/DTD/svg11.dtd"><svg width="100%" height="100%" viewBox="0 0 24 24" version="1.1" xmlns="http://www.w3.org/2000/svg" xmlns:xlink="http://www.w3.org/1999/xlink" xml:space="preserve" xmlns:serif="http://www.serif.com/" style="fill-rule:evenodd;clip-rule:evenodd;stroke-linejoin:round;stroke-miterlimit:2;"><path d="M7.565,10.393c-0.389,-0.389 -0.583,-0.86 -0.583,-1.414c-0,-0.554 0.194,-1.025 0.583,-1.414c0.389,-0.389 0.86,-0.583 1.414,-0.583c0.554,-0 1.025,0.194 1.414,0.583c0.389,0.389 0.584,0.86 0.584,1.414c-0,0.554 -0.195,1.025 -0.584,1.414c-0.389,0.389 -0.86,0.584 -1.414,0.584c-0.554,-0 -1.025,-0.195 -1.414,-0.584Zm-2.828,2.829c-1.179,-1.179 -1.768,-2.593 -1.768,-4.243c-0,-1.65 0.589,-3.064 1.768,-4.242c1.178,-1.179 2.592,-1.768 4.242,-1.768c1.65,-0 3.064,0.589 4.243,1.768c0.789,0.789 1.311,1.7 1.564,2.731c0.254,1.031 0.251,2.053 -0.009,3.067l6.223,6.222l-0,4.243l-6.364,-0l-0.354,-2.475l-2.474,-0.353l-0.442,-2.564l-0.831,-0.831c-1.014,0.26 -2.036,0.263 -3.067,0.009c-1.031,-0.253 -1.942,-0.775 -2.731,-1.564Zm1.414,-1.414c0.66,0.66 1.44,1.04 2.342,1.14c0.902,0.1 1.741,-0.074 2.519,-0.522l2.21,2.21l0.3,1.75l2.528,0.371l0.283,2.228l2.652,-0l-0,-1.414l-6.559,-6.559c0.448,-0.778 0.622,-1.617 0.522,-2.519c-0.1,-0.902 -0.48,-1.682 -1.14,-2.342c-0.778,-0.778 -1.721,-1.167 -2.829,-1.167c-1.108,0 -2.05,0.389 -2.828,1.167c-0.778,0.778 -1.167,1.72 -1.167,2.828c0,1.108 0.389,2.051 1.167,2.829Z" style="fill-rule:nonzero;"/></svg>