<?xml version="1.0" encoding="UTF-8" standalone="no"?>
<!DOCTYPE svg PUBLIC "-//W3C//DTD SVG 1.1//EN" "http://www.w3.org/Graphics/SVG/1.1/DTD/svg11.dtd">
<svg width="100%" height="100%" viewBox="0 0 96 48" version="1.1" xmlns="http://www.w3.org/2000/svg" xmlns:xlink="http://www.w3.org/1999/xlink" xml:space="preserve" xmlns:serif="http://www.serif.com/" style="fill-rule:evenodd;clip-rule:evenodd;stroke-linejoin:round;stroke-miterlimit:2;">
    <g transform="matrix(1,0,0,1,-288,-16)">
        <g transform="matrix(1,0,0,1,128.034,-64)">
            <g transform="matrix(1,0,0,1,144,0)">
                <g id="encrypted_FILL0_wght400_GRAD0_opsz24.svg" transform="matrix(1.27386,0,0,1.33333,96,96)">
                    <g transform="matrix(1,0,0,1,-12,-12)">
                        <path d="M10.5,15L13.5,15L12.925,11.775C13.258,11.608 13.521,11.367 13.713,11.05C13.904,10.733 14,10.383 14,10C14,9.45 13.804,8.979 13.413,8.587C13.021,8.196 12.55,8 12,8C11.45,8 10.979,8.196 10.588,8.587C10.196,8.979 10,9.45 10,10C10,10.383 10.096,10.733 10.288,11.05C10.479,11.367 10.742,11.608 11.075,11.775L10.5,15ZM12,22C9.683,21.417 7.771,20.087 6.263,18.013C4.754,15.938 4,13.633 4,11.1L4,5L12,2L20,5L20,11.1C20,13.633 19.246,15.938 17.738,18.013C16.229,20.087 14.317,21.417 12,22ZM12,19.9C13.733,19.35 15.167,18.25 16.3,16.6C17.433,14.95 18,13.117 18,11.1L18,6.375L12,4.125L6,6.375L6,11.1C6,13.117 6.567,14.95 7.7,16.6C8.833,18.25 10.267,19.35 12,19.9Z" style="fill-rule:nonzero;"/>
                    </g>
                </g>
                <g id="fingerprint_FILL0_wght400_GRAD0_opsz24.svg" transform="matrix(1.27386,0,0,1.33333,32,96)">
                    <g transform="matrix(1,0,0,1,-12,-12)">
                        <path d="M3.25,9.65C3.133,9.567 3.063,9.462 3.038,9.337C3.013,9.212 3.05,9.083 3.15,8.95C4.183,7.533 5.479,6.433 7.038,5.65C8.596,4.867 10.258,4.475 12.025,4.475C13.792,4.475 15.458,4.854 17.025,5.613C18.592,6.371 19.9,7.467 20.95,8.9C21.067,9.05 21.104,9.183 21.063,9.3C21.021,9.417 20.95,9.517 20.85,9.6C20.75,9.683 20.633,9.721 20.5,9.712C20.367,9.704 20.25,9.633 20.15,9.5C19.233,8.2 18.054,7.204 16.613,6.512C15.171,5.821 13.642,5.475 12.025,5.475C10.408,5.475 8.892,5.821 7.475,6.512C6.058,7.204 4.883,8.2 3.95,9.5C3.85,9.65 3.733,9.733 3.6,9.75C3.467,9.767 3.35,9.733 3.25,9.65ZM14.85,21.975C13.117,21.542 11.7,20.679 10.6,19.388C9.5,18.096 8.95,16.517 8.95,14.65C8.95,13.817 9.25,13.117 9.85,12.55C10.45,11.983 11.175,11.7 12.025,11.7C12.875,11.7 13.6,11.983 14.2,12.55C14.8,13.117 15.1,13.817 15.1,14.65C15.1,15.2 15.308,15.663 15.725,16.038C16.142,16.413 16.633,16.6 17.2,16.6C17.767,16.6 18.25,16.413 18.65,16.038C19.05,15.663 19.25,15.2 19.25,14.65C19.25,12.717 18.542,11.092 17.125,9.775C15.708,8.458 14.017,7.8 12.05,7.8C10.083,7.8 8.392,8.458 6.975,9.775C5.558,11.092 4.85,12.708 4.85,14.625C4.85,15.025 4.888,15.525 4.963,16.125C5.038,16.725 5.217,17.425 5.5,18.225C5.55,18.375 5.546,18.508 5.488,18.625C5.429,18.742 5.333,18.825 5.2,18.875C5.067,18.925 4.938,18.921 4.813,18.863C4.688,18.804 4.6,18.708 4.55,18.575C4.3,17.925 4.121,17.279 4.013,16.638C3.904,15.996 3.85,15.333 3.85,14.65C3.85,12.433 4.654,10.575 6.263,9.075C7.871,7.575 9.792,6.825 12.025,6.825C14.275,6.825 16.208,7.575 17.825,9.075C19.442,10.575 20.25,12.433 20.25,14.65C20.25,15.483 19.954,16.179 19.363,16.738C18.771,17.296 18.05,17.575 17.2,17.575C16.35,17.575 15.621,17.296 15.013,16.738C14.404,16.179 14.1,15.483 14.1,14.65C14.1,14.1 13.896,13.637 13.488,13.262C13.079,12.887 12.592,12.7 12.025,12.7C11.458,12.7 10.971,12.887 10.563,13.262C10.154,13.637 9.95,14.1 9.95,14.65C9.95,16.267 10.429,17.617 11.388,18.7C12.346,19.783 13.583,20.542 15.1,20.975C15.25,21.025 15.35,21.108 15.4,21.225C15.45,21.342 15.458,21.467 15.425,21.6C15.392,21.717 15.325,21.817 15.225,21.9C15.125,21.983 15,22.008 14.85,21.975ZM6.5,4.425C6.367,4.508 6.233,4.529 6.1,4.487C5.967,4.446 5.867,4.358 5.8,4.225C5.733,4.092 5.717,3.971 5.75,3.862C5.783,3.754 5.867,3.658 6,3.575C6.933,3.075 7.908,2.692 8.925,2.425C9.942,2.158 10.975,2.025 12.025,2.025C13.092,2.025 14.133,2.154 15.15,2.412C16.167,2.671 17.15,3.042 18.1,3.525C18.25,3.608 18.338,3.708 18.363,3.825C18.388,3.942 18.375,4.058 18.325,4.175C18.275,4.292 18.192,4.383 18.075,4.45C17.958,4.517 17.817,4.508 17.65,4.425C16.767,3.975 15.854,3.629 14.913,3.387C13.971,3.146 13.008,3.025 12.025,3.025C11.058,3.025 10.108,3.137 9.175,3.362C8.242,3.587 7.35,3.942 6.5,4.425ZM9.45,21.625C8.467,20.592 7.713,19.538 7.188,18.463C6.663,17.388 6.4,16.117 6.4,14.65C6.4,13.133 6.95,11.854 8.05,10.813C9.15,9.771 10.475,9.25 12.025,9.25C13.575,9.25 14.908,9.771 16.025,10.813C17.142,11.854 17.7,13.133 17.7,14.65C17.7,14.8 17.654,14.921 17.563,15.012C17.471,15.104 17.35,15.15 17.2,15.15C17.067,15.15 16.95,15.104 16.85,15.012C16.75,14.921 16.7,14.8 16.7,14.65C16.7,13.4 16.238,12.354 15.313,11.512C14.388,10.671 13.292,10.25 12.025,10.25C10.758,10.25 9.671,10.671 8.763,11.512C7.854,12.354 7.4,13.4 7.4,14.65C7.4,16 7.633,17.146 8.1,18.088C8.567,19.029 9.25,19.975 10.15,20.925C10.25,21.025 10.3,21.142 10.3,21.275C10.3,21.408 10.25,21.525 10.15,21.625C10.05,21.725 9.933,21.775 9.8,21.775C9.667,21.775 9.55,21.725 9.45,21.625ZM17,19.925C15.517,19.925 14.229,19.425 13.138,18.425C12.046,17.425 11.5,16.167 11.5,14.65C11.5,14.517 11.546,14.4 11.638,14.3C11.729,14.2 11.85,14.15 12,14.15C12.15,14.15 12.271,14.2 12.363,14.3C12.454,14.4 12.5,14.517 12.5,14.65C12.5,15.9 12.95,16.925 13.85,17.725C14.75,18.525 15.8,18.925 17,18.925C17.1,18.925 17.242,18.917 17.425,18.9C17.608,18.883 17.8,18.858 18,18.825C18.15,18.792 18.279,18.813 18.388,18.888C18.496,18.963 18.567,19.075 18.6,19.225C18.633,19.358 18.608,19.475 18.525,19.575C18.442,19.675 18.333,19.742 18.2,19.775C17.9,19.858 17.638,19.904 17.413,19.913C17.188,19.921 17.05,19.925 17,19.925Z" style="fill-rule:nonzero;"/>
                    </g>
                </g>
                <g id="key_FILL0_wght400_GRAD0_opsz24.svg" transform="matrix(1.27386,0,0,1.33333,64,96)">
                    <g transform="matrix(1,0,0,1,-12,-12)">
                        <path d="M7,14C6.45,14 5.979,13.804 5.588,13.413C5.196,13.021 5,12.55 5,12C5,11.45 5.196,10.979 5.588,10.587C5.979,10.196 6.45,10 7,10C7.55,10 8.021,10.196 8.413,10.587C8.804,10.979 9,11.45 9,12C9,12.55 8.804,13.021 8.413,13.413C8.021,13.804 7.55,14 7,14ZM7,18C5.333,18 3.917,17.417 2.75,16.25C1.583,15.083 1,13.667 1,12C1,10.333 1.583,8.917 2.75,7.75C3.917,6.583 5.333,6 7,6C8.117,6 9.129,6.275 10.038,6.825C10.946,7.375 11.667,8.1 12.2,9L21,9L24,12L19.5,16.5L17.5,15L15.5,16.5L13.375,15L12.2,15C11.667,15.9 10.946,16.625 10.038,17.175C9.129,17.725 8.117,18 7,18ZM7,16C7.933,16 8.754,15.717 9.463,15.15C10.171,14.583 10.642,13.867 10.875,13L14,13L15.45,14.025L17.5,12.5L19.275,13.875L21.15,12L20.15,11L10.875,11C10.642,10.133 10.171,9.417 9.463,8.85C8.754,8.283 7.933,8 7,8C5.9,8 4.958,8.392 4.175,9.175C3.392,9.958 3,10.9 3,12C3,13.1 3.392,14.042 4.175,14.825C4.958,15.608 5.9,16 7,16Z" style="fill-rule:nonzero;"/>
                    </g>
                </g>
            </g>
            <g transform="matrix(1.55815,0,4.66514e-17,1.55815,10.4177,-124.89)">
                <text x="96px" y="160px" style="font-family:'Consolas-Bold', 'Consolas', monospace;font-weight:700;font-size:11.222px;">Authentity</text>
            </g>
        </g>
    </g>
</svg>
