<?xml version="1.0" encoding="UTF-8" standalone="no"?><!DOCTYPE svg PUBLIC "-//W3C//DTD SVG 1.1//EN" "http://www.w3.org/Graphics/SVG/1.1/DTD/svg11.dtd"><svg width="100%" height="100%" viewBox="0 0 24 19" version="1.1" xmlns="http://www.w3.org/2000/svg" xmlns:xlink="http://www.w3.org/1999/xlink" xml:space="preserve" xmlns:serif="http://www.serif.com/" style="fill-rule:evenodd;clip-rule:evenodd;stroke-linejoin:round;stroke-miterlimit:2;"><path d="M16.531,12.67l2.234,0l0,-5.365l-2.517,-2.517l-1.58,1.58l1.863,1.863l-0,4.439Zm2.24,1.121l-7.794,-0l-1.863,-1.864l0.79,-0.79l1.539,1.539l3.166,0l-3.119,-3.125l0.796,-0.796l3.119,3.119l-0,-3.166l-1.533,-1.533l0.784,-0.784l-3.873,-3.891l-7.783,0l2.229,2.229l-0,0.006l4.622,-0l1.633,1.633l-2.388,2.387l-1.633,-1.633l0,-1.267l-2.234,-0l-0,2.193l3.867,3.868l-1.574,1.574l2.518,2.517l10.96,0l-2.229,-2.216Z" style="fill-rule:nonzero;"/></svg>